<svg  viewBox="0 0 512.00066 512" xmlns="http://www.w3.org/2000/svg">
  <path d="m499.890625 429.242188c-10.015625-37.457032-44.359375-63.199219-83.121094-62.308594h-1.015625l-1.042968-5.058594c-3.699219-12.875-15.871094-21.425781-29.234376-20.542969h-52.675781v-26.191406c34.097657-4.324219 59.675781-33.300781 59.734375-67.671875v-27.855469c11.210938 11.632813 24.640625 20.894531 39.5 27.246094 2.90625 1.160156 6.21875.636719 8.625-1.367187 2.40625-2.003907 3.523438-5.164063 2.90625-8.234376-1.699218-8.492187-1.117187-14.660156 1.601563-16.929687 4.074219-3.414063 14.941406-1.449219 21 .929687 2.628906 1.050782 5.605469.730469 7.953125-.859374 2.34375-1.585938 3.746094-4.234376 3.746094-7.066407.730468-26.277343-15.332032-50.113281-39.964844-59.292969-16.703125-5.566406-25.914063-32.996093-28.300782-44.039062v-16.132812c-.015624-14.132813-11.46875-25.585938-25.601562-25.601563h-.828125c-12.023437-21.183594-34.542969-34.234375-58.90625-34.132813h-17.066406v-17.066406c-.007813-9.421875-7.644531-17.0546872-17.066407-17.066406h-68.265624c-9.421876.0117188-17.054688 7.644531-17.066407 17.066406v17.066406h-17.066406c-24.359375-.101562-46.878906 12.949219-58.90625 34.132813h-.828125c-14.132812.015625-25.585938 11.46875-25.597656 25.601563v17.066406c.03125 10.8125 6.867187 20.433594 17.066406 24.027344v112.507812c.054688 34.371094 25.632812 63.347656 59.730469 67.671875v26.191406h-52.617188c-13.34375-.878906-25.503906 7.644531-29.230469 20.488281l-1.058593 5.113282h-1.058594c-38.867187-.867188-73.261719 25.015625-83.195313 62.601562l-8.019531 38.398438c-2.695312 9.066406-4.0468748 18.480468-4.019531 27.9375v7.597656c0 4.710938 3.820312 8.53125 8.535156 8.53125h494.933594c4.710938 0 8.53125-3.820312 8.53125-8.53125v-7.597656c.019531-9.574219-1.363281-19.101563-4.109375-28.277344zm-163.289063-21.078126c4.082032 2.722657 18.457032 14.644532 14.164063 23.21875-4.03125 8.480469-9.238281 16.351563-15.464844 23.378907-1.601562 1.601562-2.503906 3.769531-2.503906 6.035156 0 2.261719.902344 4.433594 2.503906 6.03125l4.179688 4.183594-5.78125 11.566406c-.59375 1.1875-.902344 2.496094-.898438 3.820313v8.535156h-153.601562v-8.535156c0-1.324219-.308594-2.628907-.898438-3.816407l-5.785156-11.566406 4.183594-4.179687c3.308593-3.328126 3.320312-8.703126.023437-12.046876-6.242187-7.03125-11.457031-14.910156-15.492187-23.402343-4.898438-9.792969 13.996093-23.097657 14.167969-23.21875 2.125-1.417969 3.503906-3.714844 3.753906-6.257813.253906-2.542968-.648438-5.066406-2.457032-6.875-8.351562-10.460937-13.234374-23.265625-13.972656-36.636718h186.589844c-.800781 13.363281-5.691406 26.152343-14.011719 36.636718-1.808593 1.804688-2.710937 4.328125-2.457031 6.871094.25 2.546875 1.628906 4.84375 3.757812 6.261719zm95.898438-237.933593c13.980469 5.039062 24.234375 17.125 26.925781 31.742187-8.75-1.878906-17.890625.019532-25.167969 5.230469-5.046874 4.371094-8.113281 10.597656-8.5 17.265625-11.828124-7.125-28.324218-19.980469-33.222656-38.046875v-51.457031c2.175782-.753906 4.242188-1.800782 6.136719-3.109375 5.773437 14.390625 16.253906 32.515625 33.828125 38.375zm-210.632812-153.164063h68.265624v17.066406h-68.265624zm-34.132813 34.132813h136.53125c14.601563-.082031 28.527344 6.140625 38.210937 17.066406h-212.953124c9.683593-10.925781 23.609374-17.148437 38.210937-17.066406zm-68.265625 42.667969c.003906-4.710938 3.820312-8.527344 8.53125-8.535157h256c4.710938.007813 8.53125 3.824219 8.535156 8.535157v17.066406c-.003906 4.710937-3.824218 8.527344-8.535156 8.535156h-256c-4.710938-.007812-8.527344-3.824219-8.53125-8.535156zm162.132812 76.800781h51.199219v25.597656c-.003906 4.710937-3.824219 8.53125-8.535156 8.535156h-34.132813c-4.710937-.003906-8.527343-3.824219-8.53125-8.535156zm47.664063-17.066407h-44.132813l-17.066406-17.066406h78.265625zm-192.730469 93.867188v-110.933594h107.398438l24.007812 24.003906c-2.203125 2.921876-3.398437 6.472657-3.40625 10.128907v25.597656c.015625 14.132813 11.464844 25.585937 25.597656 25.601563h34.132813c14.132813-.015626 25.585937-11.46875 25.601563-25.601563v-25.597656c-.011719-3.65625-1.207032-7.207031-3.40625-10.128907l24.007812-24.003906h5v110.933594c-.03125 28.261719-22.9375 51.167969-51.203125 51.199219h-136.53125c-28.265625-.03125-51.167969-22.9375-51.199219-51.199219zm59.730469 68.265625h119.46875v25.597656h-119.46875zm-175.683594 156.304687c.027344-.105468.210938-.859374.226563-.964843l7.863281-37.765625c7.910156-28.890625 34.101563-48.96875 64.050781-49.109375l-22.875 110.734375h-52.78125c.074219-7.761719 1.257813-15.46875 3.515625-22.894532zm66.691407 22.894532 26.800781-129.707032c2.28125-4.71875 7.308593-7.460937 12.507812-6.828124h18.976563c1.054687 14.601562 5.523437 28.746093 13.042968 41.304687-10.316406 9.332031-20.191406 24.1875-12.628906 39.3125 3.699219 7.488281 8.097656 14.613281 13.132813 21.277344l-3 3.003906c-2.597657 2.597656-3.242188 6.566406-1.601563 9.851563l7.628906 15.265624v6.519532zm322.328124 0h-59.734374v-6.519532l7.632812-15.261718c1.640625-3.289063.996094-7.253906-1.601562-9.851563l-2.996094-3.003906c5.03125-6.667969 9.429687-13.792969 13.132812-21.28125 7.558594-15.125-2.320312-29.976563-12.632812-39.3125 7.519531-12.558594 11.988281-26.703125 13.042968-41.304687h19.027344c5.214844-.640626 10.253906 2.128906 12.507813 6.871093l26.746093 129.664063zm32.550782 0-22.839844-110.734375c29.839844.128906 55.957031 20.070312 63.945312 48.816406l7.9375 38.058594c.015626.105469.199219.859375.222657.964843 2.257812 7.425782 3.441406 15.132813 3.515625 22.894532zm0 0" />
  <path d="m213.332031 264.535156c0 4.710938 3.820313 8.53125 8.535157 8.53125h34.132812c42.183594 0 42.667969-24.554687 42.667969-25.597656.023437-4.761719-3.769531-8.660156-8.527344-8.773438-2.234375-.050781-4.398437.796876-6.003906 2.359376-1.601563 1.558593-2.511719 3.699218-2.519531 5.9375-.417969 3.121093-6.308594 9.007812-25.617188 9.007812h-34.132812c-4.714844 0-8.535157 3.820312-8.535157 8.535156zm0 0" />
  <path d="m196.265625 179.199219h8.535156v17.066406c0 4.714844 3.820313 8.535156 8.53125 8.535156 4.714844 0 8.535157-3.820312 8.535157-8.535156v-17.066406c4.710937 0 8.535156-3.820313 8.535156-8.53125 0-4.714844-3.824219-8.535157-8.535156-8.535157h-25.601563c-4.710937 0-8.53125 3.820313-8.53125 8.535157 0 4.710937 3.820313 8.53125 8.53125 8.53125zm0 0" />
  <path d="m247.46875 401.066406c0-4.710937-3.820312-8.53125-8.535156-8.53125-4.710938 0-8.53125 3.820313-8.53125 8.53125v8.535156c0 4.710938 3.820312 8.53125 8.53125 8.53125 4.714844 0 8.535156-3.820312 8.535156-8.53125zm0 0" />
  <path d="m281.601562 409.601562v-8.535156c0-4.710937-3.820312-8.53125-8.535156-8.53125-4.710937 0-8.53125 3.820313-8.53125 8.53125v8.535156c0 4.710938 3.820313 8.53125 8.53125 8.53125 4.714844 0 8.535156-3.820312 8.535156-8.53125zm0 0" />
  <path d="m221.867188 426.667969c0-4.714844-3.820313-8.535157-8.535157-8.535157-4.710937 0-8.53125 3.820313-8.53125 8.535157v8.53125c0 4.714843 3.820313 8.535156 8.53125 8.535156 4.714844 0 8.535157-3.820313 8.535157-8.535156zm0 0" />
  <path d="m256 426.667969c-4.710938 0-8.53125 3.820312-8.53125 8.53125v8.535156c0 4.710937 3.820312 8.53125 8.53125 8.53125 4.714844 0 8.535156-3.820313 8.535156-8.53125v-8.535156c0-4.710938-3.820312-8.53125-8.535156-8.53125zm0 0" />
  <path d="m298.667969 418.132812c-4.714844 0-8.535157 3.820313-8.535157 8.535157v8.53125c0 4.714843 3.820313 8.535156 8.535157 8.535156 4.710937 0 8.53125-3.820313 8.53125-8.535156v-8.53125c0-4.714844-3.820313-8.535157-8.53125-8.535157zm0 0" />
  <path d="m230.402344 452.265625c-4.714844 0-8.535156 3.820313-8.535156 8.535156v8.53125c0 4.714844 3.820312 8.535157 8.535156 8.535157 4.710937 0 8.53125-3.820313 8.53125-8.535157v-8.53125c0-4.714843-3.820313-8.535156-8.53125-8.535156zm0 0" />
  <path d="m281.601562 452.265625c-4.714843 0-8.535156 3.820313-8.535156 8.535156v8.53125c0 4.714844 3.820313 8.535157 8.535156 8.535157 4.710938 0 8.53125-3.820313 8.53125-8.535157v-8.53125c0-4.714843-3.820312-8.535156-8.53125-8.535156zm0 0" />
</svg>