<svg width="56" height="55" viewBox="0 0 56 55" fill="none" xmlns="http://www.w3.org/2000/svg">
  <path fill-rule="evenodd" clip-rule="evenodd" d="M32.6667 6.87498C32.6667 5.60933 33.7114 4.58331 35.0001 4.58331H49.0001C50.2887 4.58331 51.3334 5.60933 51.3334 6.87498V20.625C51.3334 21.8906 50.2887 22.9166 49.0001 22.9166C47.7114 22.9166 46.6668 21.8906 46.6668 20.625V9.16665H35.0001C33.7114 9.16665 32.6667 8.14063 32.6667 6.87498Z" fill="white" />
  <path fill-rule="evenodd" clip-rule="evenodd" d="M7.00008 32.0833C8.28875 32.0833 9.33341 33.1093 9.33341 34.375V45.8333H21.0001C22.2887 45.8333 23.3334 46.8593 23.3334 48.125C23.3334 49.3906 22.2887 50.4166 21.0001 50.4166H7.00008C5.71142 50.4166 4.66675 49.3906 4.66675 48.125V34.375C4.66675 33.1093 5.71142 32.0833 7.00008 32.0833Z" fill="white" />
  <path fill-rule="evenodd" clip-rule="evenodd" d="M50.6498 5.25453C51.5611 6.14948 51.5611 7.60048 50.6498 8.49543L34.3165 24.5371C33.4053 25.4321 31.9279 25.4321 31.0167 24.5371C30.1054 23.6421 30.1054 22.1911 31.0167 21.2962L47.35 5.25453C48.2612 4.35958 49.7386 4.35958 50.6498 5.25453Z" fill="white" />
  <path fill-rule="evenodd" clip-rule="evenodd" d="M24.9833 30.4629C25.8946 31.3579 25.8946 32.8089 24.9833 33.7038L8.65 49.7455C7.73877 50.6404 6.26139 50.6404 5.35017 49.7455C4.43894 48.8505 4.43894 47.3995 5.35017 46.5046L21.6835 30.4629C22.5947 29.5679 24.0721 29.5679 24.9833 30.4629Z" fill="white" />
</svg>